<svg id="visual" viewBox="0 0 960 100" width="960" height="100" xmlns="http://www.w3.org/2000/svg" xmlns:xlink="http://www.w3.org/1999/xlink" version="1.1"><path d="M0 38L8 34.7C16 31.3 32 24.7 48 22.5C64 20.3 80 22.7 96 22.3C112 22 128 19 144 19.5C160 20 176 24 192 23.7C208 23.3 224 18.7 240 20.5C256 22.3 272 30.7 288 32.8C304 35 320 31 336 27.2C352 23.3 368 19.7 384 21.7C400 23.7 416 31.3 432 34.8C448 38.3 464 37.7 480 35.3C496 33 512 29 528 28.5C544 28 560 31 576 34.2C592 37.3 608 40.7 624 41C640 41.3 656 38.7 672 38.3C688 38 704 40 720 36.8C736 33.7 752 25.3 768 21.3C784 17.3 800 17.7 816 17.7C832 17.7 848 17.3 864 20C880 22.7 896 28.3 912 29.5C928 30.7 944 27.3 952 25.7L960 24L960 101L952 101C944 101 928 101 912 101C896 101 880 101 864 101C848 101 832 101 816 101C800 101 784 101 768 101C752 101 736 101 720 101C704 101 688 101 672 101C656 101 640 101 624 101C608 101 592 101 576 101C560 101 544 101 528 101C512 101 496 101 480 101C464 101 448 101 432 101C416 101 400 101 384 101C368 101 352 101 336 101C320 101 304 101 288 101C272 101 256 101 240 101C224 101 208 101 192 101C176 101 160 101 144 101C128 101 112 101 96 101C80 101 64 101 48 101C32 101 16 101 8 101L0 101Z" fill="#c62368"></path><path d="M0 56L8 55.7C16 55.3 32 54.7 48 53.2C64 51.7 80 49.3 96 46.3C112 43.3 128 39.7 144 37.2C160 34.7 176 33.3 192 33.3C208 33.3 224 34.7 240 34.7C256 34.7 272 33.3 288 35.7C304 38 320 44 336 45.5C352 47 368 44 384 43.7C400 43.3 416 45.7 432 47.2C448 48.7 464 49.3 480 46.3C496 43.3 512 36.7 528 36.3C544 36 560 42 576 43C592 44 608 40 624 38.5C640 37 656 38 672 37C688 36 704 33 720 32C736 31 752 32 768 32.2C784 32.3 800 31.7 816 35.3C832 39 848 47 864 48.7C880 50.3 896 45.7 912 44.8C928 44 944 47 952 48.5L960 50L960 101L952 101C944 101 928 101 912 101C896 101 880 101 864 101C848 101 832 101 816 101C800 101 784 101 768 101C752 101 736 101 720 101C704 101 688 101 672 101C656 101 640 101 624 101C608 101 592 101 576 101C560 101 544 101 528 101C512 101 496 101 480 101C464 101 448 101 432 101C416 101 400 101 384 101C368 101 352 101 336 101C320 101 304 101 288 101C272 101 256 101 240 101C224 101 208 101 192 101C176 101 160 101 144 101C128 101 112 101 96 101C80 101 64 101 48 101C32 101 16 101 8 101L0 101Z" fill="#922b6a"></path><path d="M0 45L8 45.7C16 46.3 32 47.7 48 49.3C64 51 80 53 96 53.8C112 54.7 128 54.3 144 52.8C160 51.3 176 48.7 192 49.5C208 50.3 224 54.7 240 56.8C256 59 272 59 288 56.8C304 54.7 320 50.3 336 50.7C352 51 368 56 384 56.2C400 56.3 416 51.7 432 50.7C448 49.7 464 52.3 480 52.7C496 53 512 51 528 52.3C544 53.7 560 58.3 576 60.5C592 62.7 608 62.3 624 60.7C640 59 656 56 672 53.2C688 50.3 704 47.7 720 48.5C736 49.3 752 53.7 768 55.3C784 57 800 56 816 54.7C832 53.3 848 51.7 864 50C880 48.3 896 46.7 912 46.2C928 45.7 944 46.3 952 46.7L960 47L960 101L952 101C944 101 928 101 912 101C896 101 880 101 864 101C848 101 832 101 816 101C800 101 784 101 768 101C752 101 736 101 720 101C704 101 688 101 672 101C656 101 640 101 624 101C608 101 592 101 576 101C560 101 544 101 528 101C512 101 496 101 480 101C464 101 448 101 432 101C416 101 400 101 384 101C368 101 352 101 336 101C320 101 304 101 288 101C272 101 256 101 240 101C224 101 208 101 192 101C176 101 160 101 144 101C128 101 112 101 96 101C80 101 64 101 48 101C32 101 16 101 8 101L0 101Z" fill="#5f2c5e"></path><path d="M0 78L8 75.5C16 73 32 68 48 66.3C64 64.7 80 66.3 96 66.5C112 66.7 128 65.3 144 64.7C160 64 176 64 192 64.7C208 65.3 224 66.7 240 67C256 67.3 272 66.7 288 67.3C304 68 320 70 336 71.5C352 73 368 74 384 74C400 74 416 73 432 72.8C448 72.7 464 73.3 480 71.5C496 69.7 512 65.3 528 65.2C544 65 560 69 576 70.5C592 72 608 71 624 70.2C640 69.3 656 68.7 672 67C688 65.3 704 62.7 720 64.3C736 66 752 72 768 73C784 74 800 70 816 68.5C832 67 848 68 864 68.7C880 69.3 896 69.7 912 70.5C928 71.3 944 72.7 952 73.3L960 74L960 101L952 101C944 101 928 101 912 101C896 101 880 101 864 101C848 101 832 101 816 101C800 101 784 101 768 101C752 101 736 101 720 101C704 101 688 101 672 101C656 101 640 101 624 101C608 101 592 101 576 101C560 101 544 101 528 101C512 101 496 101 480 101C464 101 448 101 432 101C416 101 400 101 384 101C368 101 352 101 336 101C320 101 304 101 288 101C272 101 256 101 240 101C224 101 208 101 192 101C176 101 160 101 144 101C128 101 112 101 96 101C80 101 64 101 48 101C32 101 16 101 8 101L0 101Z" fill="#342645"></path><path d="M0 81L8 81.2C16 81.3 32 81.7 48 82.5C64 83.3 80 84.7 96 86.2C112 87.7 128 89.3 144 89.8C160 90.3 176 89.7 192 89.3C208 89 224 89 240 87.8C256 86.7 272 84.3 288 82.8C304 81.3 320 80.7 336 81.3C352 82 368 84 384 84.7C400 85.3 416 84.7 432 84.5C448 84.3 464 84.7 480 85.2C496 85.7 512 86.3 528 86.8C544 87.3 560 87.7 576 86.2C592 84.7 608 81.3 624 81.3C640 81.3 656 84.7 672 86.2C688 87.7 704 87.3 720 86.3C736 85.3 752 83.7 768 81.5C784 79.3 800 76.7 816 77.5C832 78.3 848 82.7 864 85.2C880 87.7 896 88.3 912 86.5C928 84.7 944 80.3 952 78.2L960 76L960 101L952 101C944 101 928 101 912 101C896 101 880 101 864 101C848 101 832 101 816 101C800 101 784 101 768 101C752 101 736 101 720 101C704 101 688 101 672 101C656 101 640 101 624 101C608 101 592 101 576 101C560 101 544 101 528 101C512 101 496 101 480 101C464 101 448 101 432 101C416 101 400 101 384 101C368 101 352 101 336 101C320 101 304 101 288 101C272 101 256 101 240 101C224 101 208 101 192 101C176 101 160 101 144 101C128 101 112 101 96 101C80 101 64 101 48 101C32 101 16 101 8 101L0 101Z" fill="#191924"></path></svg>