<svg id="visual" viewBox="0 0 960 100" width="960" height="100" xmlns="http://www.w3.org/2000/svg" xmlns:xlink="http://www.w3.org/1999/xlink" version="1.1"><path d="M0 60L8 63.3C16 66.7 32 73.3 48 75.5C64 77.7 80 75.3 96 75.7C112 76 128 79 144 78.5C160 78 176 74 192 74.3C208 74.7 224 79.3 240 77.5C256 75.7 272 67.3 288 65.2C304 63 320 67 336 70.8C352 74.7 368 78.3 384 76.3C400 74.3 416 66.7 432 63.2C448 59.7 464 60.3 480 62.7C496 65 512 69 528 69.5C544 70 560 67 576 63.8C592 60.7 608 57.3 624 57C640 56.7 656 59.3 672 59.7C688 60 704 58 720 61.2C736 64.3 752 72.7 768 76.7C784 80.7 800 80.3 816 80.3C832 80.3 848 80.7 864 78C880 75.3 896 69.7 912 68.5C928 67.3 944 70.7 952 72.3L960 74L960 0L952 0C944 0 928 0 912 0C896 0 880 0 864 0C848 0 832 0 816 0C800 0 784 0 768 0C752 0 736 0 720 0C704 0 688 0 672 0C656 0 640 0 624 0C608 0 592 0 576 0C560 0 544 0 528 0C512 0 496 0 480 0C464 0 448 0 432 0C416 0 400 0 384 0C368 0 352 0 336 0C320 0 304 0 288 0C272 0 256 0 240 0C224 0 208 0 192 0C176 0 160 0 144 0C128 0 112 0 96 0C80 0 64 0 48 0C32 0 16 0 8 0L0 0Z" fill="#c62368"></path><path d="M0 42L8 42.3C16 42.7 32 43.3 48 44.8C64 46.3 80 48.7 96 51.7C112 54.7 128 58.3 144 60.8C160 63.3 176 64.7 192 64.7C208 64.7 224 63.3 240 63.3C256 63.3 272 64.7 288 62.3C304 60 320 54 336 52.5C352 51 368 54 384 54.3C400 54.7 416 52.3 432 50.8C448 49.3 464 48.7 480 51.7C496 54.7 512 61.3 528 61.7C544 62 560 56 576 55C592 54 608 58 624 59.5C640 61 656 60 672 61C688 62 704 65 720 66C736 67 752 66 768 65.8C784 65.7 800 66.3 816 62.7C832 59 848 51 864 49.3C880 47.7 896 52.3 912 53.2C928 54 944 51 952 49.5L960 48L960 0L952 0C944 0 928 0 912 0C896 0 880 0 864 0C848 0 832 0 816 0C800 0 784 0 768 0C752 0 736 0 720 0C704 0 688 0 672 0C656 0 640 0 624 0C608 0 592 0 576 0C560 0 544 0 528 0C512 0 496 0 480 0C464 0 448 0 432 0C416 0 400 0 384 0C368 0 352 0 336 0C320 0 304 0 288 0C272 0 256 0 240 0C224 0 208 0 192 0C176 0 160 0 144 0C128 0 112 0 96 0C80 0 64 0 48 0C32 0 16 0 8 0L0 0Z" fill="#952b6d"></path><path d="M0 53L8 52.3C16 51.7 32 50.3 48 48.7C64 47 80 45 96 44.2C112 43.3 128 43.7 144 45.2C160 46.7 176 49.3 192 48.5C208 47.7 224 43.3 240 41.2C256 39 272 39 288 41.2C304 43.3 320 47.7 336 47.3C352 47 368 42 384 42C400 42 416 47 432 48C448 49 464 46 480 45.5C496 45 512 47 528 45.7C544 44.3 560 39.7 576 37.5C592 35.3 608 35.7 624 37.3C640 39 656 42 672 44.8C688 47.7 704 50.3 720 49.5C736 48.7 752 44.3 768 42.7C784 41 800 42 816 43.3C832 44.7 848 46.3 864 48C880 49.7 896 51.3 912 51.8C928 52.3 944 51.7 952 51.3L960 51L960 0L952 0C944 0 928 0 912 0C896 0 880 0 864 0C848 0 832 0 816 0C800 0 784 0 768 0C752 0 736 0 720 0C704 0 688 0 672 0C656 0 640 0 624 0C608 0 592 0 576 0C560 0 544 0 528 0C512 0 496 0 480 0C464 0 448 0 432 0C416 0 400 0 384 0C368 0 352 0 336 0C320 0 304 0 288 0C272 0 256 0 240 0C224 0 208 0 192 0C176 0 160 0 144 0C128 0 112 0 96 0C80 0 64 0 48 0C32 0 16 0 8 0L0 0Z" fill="#642e63"></path><path d="M0 20L8 22.5C16 25 32 30 48 31.7C64 33.3 80 31.7 96 31.5C112 31.3 128 32.7 144 33.3C160 34 176 34 192 33.3C208 32.7 224 31.3 240 31C256 30.7 272 31.3 288 30.7C304 30 320 28 336 26.5C352 25 368 24 384 24C400 24 416 25 432 25.2C448 25.3 464 24.7 480 26.5C496 28.3 512 32.7 528 32.8C544 33 560 29 576 27.5C592 26 608 27 624 27.8C640 28.7 656 29.3 672 31C688 32.7 704 35.3 720 33.7C736 32 752 26 768 25C784 24 800 28 816 29.5C832 31 848 30 864 29.3C880 28.7 896 28.3 912 27.5C928 26.7 944 25.3 952 24.7L960 24L960 0L952 0C944 0 928 0 912 0C896 0 880 0 864 0C848 0 832 0 816 0C800 0 784 0 768 0C752 0 736 0 720 0C704 0 688 0 672 0C656 0 640 0 624 0C608 0 592 0 576 0C560 0 544 0 528 0C512 0 496 0 480 0C464 0 448 0 432 0C416 0 400 0 384 0C368 0 352 0 336 0C320 0 304 0 288 0C272 0 256 0 240 0C224 0 208 0 192 0C176 0 160 0 144 0C128 0 112 0 96 0C80 0 64 0 48 0C32 0 16 0 8 0L0 0Z" fill="#3a294d"></path><path d="M0 17L8 16.8C16 16.7 32 16.3 48 15.5C64 14.7 80 13.3 96 11.8C112 10.3 128 8.7 144 8.2C160 7.7 176 8.3 192 8.7C208 9 224 9 240 10.2C256 11.3 272 13.7 288 15.2C304 16.7 320 17.3 336 16.7C352 16 368 14 384 13.3C400 12.7 416 13.3 432 13.5C448 13.7 464 13.3 480 12.8C496 12.3 512 11.7 528 11.2C544 10.7 560 10.3 576 11.8C592 13.3 608 16.7 624 16.7C640 16.7 656 13.3 672 11.8C688 10.3 704 10.7 720 11.7C736 12.7 752 14.3 768 16.5C784 18.7 800 21.3 816 20.5C832 19.7 848 15.3 864 12.8C880 10.3 896 9.7 912 11.5C928 13.3 944 17.7 952 19.8L960 22L960 0L952 0C944 0 928 0 912 0C896 0 880 0 864 0C848 0 832 0 816 0C800 0 784 0 768 0C752 0 736 0 720 0C704 0 688 0 672 0C656 0 640 0 624 0C608 0 592 0 576 0C560 0 544 0 528 0C512 0 496 0 480 0C464 0 448 0 432 0C416 0 400 0 384 0C368 0 352 0 336 0C320 0 304 0 288 0C272 0 256 0 240 0C224 0 208 0 192 0C176 0 160 0 144 0C128 0 112 0 96 0C80 0 64 0 48 0C32 0 16 0 8 0L0 0Z" fill="#1e1e2f"></path></svg>